<svg id="Plan_1" data-name="Plan 1" xmlns="http://www.w3.org/2000/svg" viewBox="0 0 273.29 83.12"><defs><style>.cls-1{fill:#00963f;}.cls-2{fill:#009ee3;fill-rule:evenodd;}</style></defs><title>Dratel_2016_majuscules[2]</title><path class="cls-1" d="M321.44,338.9l-5-15.2h2.12l2.37,7.49c.65,2.05,1.22,3.9,1.62,5.68h0c.43-1.76,1.06-3.68,1.74-5.66l2.57-7.51H329l-5.44,15.2Z" transform="translate(-284.3 -256.03)"/><path class="cls-1" d="M333.15,334.12l-1.58,4.78h-2l5.16-15.2h2.37l5.19,15.2h-2.1l-1.62-4.78Zm5-1.53-1.49-4.37c-.34-1-.56-1.89-.79-2.77h0c-.23.9-.47,1.83-.77,2.75l-1.49,4.4Z" transform="translate(-284.3 -256.03)"/><path class="cls-1" d="M344.49,323.7h2v13.55h6.5v1.65h-8.46Z" transform="translate(-284.3 -256.03)"/><path class="cls-1" d="M368.12,331.15c0,5.23-3.18,8-7.06,8s-6.83-3.11-6.83-7.71c0-4.83,3-8,7.06-8S368.12,326.64,368.12,331.15Zm-11.79.25c0,3.25,1.76,6.16,4.85,6.16s4.87-2.86,4.87-6.31c0-3-1.58-6.18-4.85-6.18S356.32,328.06,356.32,331.39Z" transform="translate(-284.3 -256.03)"/><path class="cls-1" d="M370.66,323.91a20.42,20.42,0,0,1,3.77-.32c2.1,0,3.45.38,4.4,1.24a3.78,3.78,0,0,1,1.2,2.89,4,4,0,0,1-2.86,3.88v.07c1.17.41,1.87,1.49,2.23,3.07a24.17,24.17,0,0,0,1.17,4.17h-2a19.71,19.71,0,0,1-1-3.63c-.45-2.1-1.26-2.89-3-3h-1.85v6.58h-2Zm2,6.92h2c2.1,0,3.43-1.15,3.43-2.89,0-2-1.42-2.82-3.5-2.84a8.1,8.1,0,0,0-1.94.18Z" transform="translate(-284.3 -256.03)"/><path class="cls-1" d="M384.76,323.7v15.2h-2V323.7Z" transform="translate(-284.3 -256.03)"/><path class="cls-1" d="M387.91,336.51a7,7,0,0,0,3.52,1c2,0,3.18-1.06,3.18-2.59s-.81-2.23-2.86-3c-2.48-.88-4-2.17-4-4.31,0-2.37,2-4.13,4.92-4.13a6.9,6.9,0,0,1,3.36.74l-.54,1.6a6,6,0,0,0-2.89-.72c-2.07,0-2.86,1.24-2.86,2.28,0,1.42.92,2.12,3,2.93,2.57,1,3.88,2.23,3.88,4.47s-1.74,4.38-5.32,4.38a7.86,7.86,0,0,1-3.88-1Z" transform="translate(-284.3 -256.03)"/><path class="cls-1" d="M407.17,331.78h-5.91v5.48h6.58v1.65H399.3V323.7h8.21v1.65h-6.25v4.8h5.91Z" transform="translate(-284.3 -256.03)"/><path class="cls-1" d="M410.39,323.91a20.42,20.42,0,0,1,3.77-.32c2.1,0,3.45.38,4.4,1.24a3.78,3.78,0,0,1,1.2,2.89,4,4,0,0,1-2.86,3.88v.07c1.17.41,1.87,1.49,2.23,3.07a24.17,24.17,0,0,0,1.17,4.17h-2a19.71,19.71,0,0,1-1-3.63c-.45-2.1-1.26-2.89-3-3h-1.85v6.58h-2Zm2,6.92h2c2.1,0,3.43-1.15,3.43-2.89,0-2-1.42-2.82-3.5-2.84a8.1,8.1,0,0,0-1.94.18Z" transform="translate(-284.3 -256.03)"/><path class="cls-1" d="M430.64,338.9l-5-15.2h2.12l2.37,7.49c.65,2.05,1.22,3.9,1.62,5.68h0c.43-1.76,1.06-3.68,1.74-5.66l2.57-7.51h2.1l-5.44,15.2Z" transform="translate(-284.3 -256.03)"/><path class="cls-1" d="M452.88,331.15c0,5.23-3.18,8-7.06,8S439,336,439,331.44c0-4.83,3-8,7.06-8S452.88,326.64,452.88,331.15Zm-11.79.25c0,3.25,1.76,6.16,4.85,6.16s4.87-2.86,4.87-6.31c0-3-1.58-6.18-4.85-6.18S441.08,328.06,441.08,331.39Z" transform="translate(-284.3 -256.03)"/><path class="cls-1" d="M455.15,336.51a7,7,0,0,0,3.52,1c2,0,3.18-1.06,3.18-2.59s-.81-2.23-2.86-3c-2.48-.88-4-2.17-4-4.31,0-2.37,2-4.13,4.92-4.13a6.9,6.9,0,0,1,3.36.74l-.54,1.6a6,6,0,0,0-2.89-.72c-2.07,0-2.86,1.24-2.86,2.28,0,1.42.92,2.12,3,2.93,2.57,1,3.88,2.23,3.88,4.47s-1.74,4.38-5.32,4.38a7.86,7.86,0,0,1-3.88-1Z" transform="translate(-284.3 -256.03)"/><path class="cls-1" d="M473.28,323.7v15.2h-2V323.7Z" transform="translate(-284.3 -256.03)"/><path class="cls-1" d="M476.71,323.91a28.06,28.06,0,0,1,4.17-.32c2.82,0,4.83.65,6.16,1.89a7,7,0,0,1,2.14,5.46,8,8,0,0,1-2.19,5.91c-1.42,1.42-3.77,2.19-6.72,2.19a31.77,31.77,0,0,1-3.56-.18Zm2,13.44a12.44,12.44,0,0,0,2,.11c4.19,0,6.47-2.35,6.47-6.45,0-3.59-2-5.86-6.16-5.86a11.11,11.11,0,0,0-2.3.2Z" transform="translate(-284.3 -256.03)"/><path class="cls-1" d="M499.6,331.78h-5.91v5.48h6.59v1.65h-8.55V323.7h8.21v1.65h-6.25v4.8h5.91Zm-.38-11.52-2.86,2.64h-1.62l2.1-2.64Z" transform="translate(-284.3 -256.03)"/><path class="cls-1" d="M510.69,331.78h-5.91v5.48h6.59v1.65h-8.55V323.7H511v1.65h-6.25v4.8h5.91Z" transform="translate(-284.3 -256.03)"/><path class="cls-1" d="M513.64,336.51a7,7,0,0,0,3.52,1c2,0,3.18-1.06,3.18-2.59s-.81-2.23-2.86-3c-2.48-.88-4-2.17-4-4.31,0-2.37,2-4.13,4.92-4.13a6.9,6.9,0,0,1,3.36.74l-.54,1.6a6,6,0,0,0-2.89-.72c-2.07,0-2.86,1.24-2.86,2.28,0,1.42.92,2.12,3,2.93,2.57,1,3.88,2.23,3.88,4.47s-1.74,4.38-5.32,4.38a7.86,7.86,0,0,1-3.88-1Z" transform="translate(-284.3 -256.03)"/><path class="cls-2" d="M307,264.74H294.82v32.61H307q7,0,9.63-3.51t2.65-12.8c0-6.18-.88-10.43-2.65-12.79s-5-3.52-9.63-3.52ZM284.3,256h22.9q12.07,0,17.83,6.32t5.75,19.58a32.43,32.43,0,0,1-1.92,11.76,18.72,18.72,0,0,1-5.77,8,18.43,18.43,0,0,1-6.33,3.39,34,34,0,0,1-9.24,1H284.3V256ZM361.44,265h-12.9v12.61h12.9q5.24,0,7.28-1.43c1.36-1,2-2.59,2-4.91s-.66-3.91-2-4.85S365,265,361.44,265ZM338,256h25.91q9.06,0,13.27,3.65t4.23,11.4a15.84,15.84,0,0,1-2.6,9.41,12,12,0,0,1-7.51,4.7l12.48,20.87H372l-11-19.65H348.54v19.65H338V256ZM409.78,266l-7.32,19.25h14.9L409.78,266ZM404.62,256l-21.17,50h11.16l4.46-11.91h21.74l4.59,11.91H437.1l-21.33-50Zm40.52,8.78H429V256.1h43.27v8.71H456v41.25H445.13V264.81Zm52.83-.07c-3.82,0-6.69,1-8.63,2.87s-3,4.83-3.22,8.77l29.12,0v8.67H486q0,6.53,2.78,9.41t9.14,2.86h17.28v8.71H497.45a33.92,33.92,0,0,1-9.24-1,18.54,18.54,0,0,1-6.33-3.39,18.79,18.79,0,0,1-5.76-8,32.42,32.42,0,0,1-1.92-11.76q0-13.27,5.75-19.58t17.8-6.32h17.49v8.71Zm46.32,41.32q-7,0-10.42-1.17a16.1,16.1,0,0,1-9.6-9.92,32,32,0,0,1-1-9.19V256h10.52v29.42a32.54,32.54,0,0,0,.39,6.18,6.28,6.28,0,0,0,1.35,2.88,8.2,8.2,0,0,0,3.67,2.51,19.2,19.2,0,0,0,6,.75h12.39v8.29Z" transform="translate(-284.3 -256.03)"/></svg>