<svg id="Plan_1" data-name="Plan 1" xmlns="http://www.w3.org/2000/svg" viewBox="0 0 273.29 84.81"><defs><style>.cls-1{fill:#00963f;}.cls-2{fill:#009ee3;fill-rule:evenodd;}</style></defs><title>logo</title><path class="cls-1" d="M291,340.51l-6.55-20.08h2.8l3.13,9.89c.86,2.71,1.61,5.15,2.14,7.51h.06c.57-2.32,1.4-4.85,2.29-7.48l3.4-9.92H301l-7.18,20.08Z" transform="translate(-284.3 -256.03)"/><path class="cls-1" d="M306.43,334.2l-2.08,6.31h-2.68l6.82-20.08h3.13l6.85,20.08h-2.77l-2.14-6.31Zm6.58-2-2-5.78c-.45-1.31-.74-2.5-1-3.66h-.06c-.3,1.19-.63,2.41-1,3.63l-2,5.81Z" transform="translate(-284.3 -256.03)"/><path class="cls-1" d="M321.4,320.43H324v17.9h8.58v2.17H321.4Z" transform="translate(-284.3 -256.03)"/><path class="cls-1" d="M352.62,330.26c0,6.91-4.2,10.57-9.32,10.57-5.3,0-9-4.11-9-10.19,0-6.37,4-10.54,9.32-10.54S352.62,324.31,352.62,330.26Zm-15.58.33c0,4.29,2.32,8.13,6.4,8.13s6.43-3.78,6.43-8.34c0-4-2.08-8.16-6.4-8.16S337,326.18,337,330.59Z" transform="translate(-284.3 -256.03)"/><path class="cls-1" d="M356,320.7a26.94,26.94,0,0,1,5-.42c2.77,0,4.56.51,5.81,1.64a5,5,0,0,1,1.58,3.81,5.27,5.27,0,0,1-3.78,5.12v.09c1.55.54,2.47,2,2.95,4.05a32,32,0,0,0,1.55,5.51h-2.68a26,26,0,0,1-1.34-4.79c-.6-2.77-1.67-3.81-4-3.9h-2.44v8.7H356Zm2.59,9.14h2.65c2.77,0,4.53-1.52,4.53-3.81,0-2.59-1.88-3.72-4.62-3.75a10.66,10.66,0,0,0-2.56.24Z" transform="translate(-284.3 -256.03)"/><path class="cls-1" d="M374.59,320.43v20.08H372V320.43Z" transform="translate(-284.3 -256.03)"/><path class="cls-1" d="M378.76,337.35a9.18,9.18,0,0,0,4.65,1.31c2.65,0,4.2-1.4,4.2-3.42s-1.07-2.95-3.78-4c-3.28-1.16-5.3-2.86-5.3-5.69,0-3.13,2.59-5.45,6.49-5.45a9.13,9.13,0,0,1,4.44,1l-.71,2.12a8,8,0,0,0-3.81-1c-2.74,0-3.78,1.64-3.78,3,0,1.88,1.22,2.8,4,3.87,3.4,1.31,5.12,2.95,5.12,5.9s-2.29,5.78-7,5.78a10.37,10.37,0,0,1-5.12-1.28Z" transform="translate(-284.3 -256.03)"/><path class="cls-1" d="M404.2,331.1h-7.8v7.24h8.7v2.17H393.8V320.43h10.84v2.17h-8.25V329h7.8Z" transform="translate(-284.3 -256.03)"/><path class="cls-1" d="M408.45,320.7a26.94,26.94,0,0,1,5-.42c2.77,0,4.56.51,5.81,1.64a5,5,0,0,1,1.58,3.81,5.27,5.27,0,0,1-3.78,5.12v.09c1.55.54,2.47,2,2.95,4.05a32,32,0,0,0,1.55,5.51h-2.68a26,26,0,0,1-1.34-4.79c-.6-2.77-1.67-3.81-4-3.9H411v8.7h-2.59Zm2.59,9.14h2.65c2.77,0,4.53-1.52,4.53-3.81,0-2.59-1.88-3.72-4.62-3.75a10.66,10.66,0,0,0-2.56.24Z" transform="translate(-284.3 -256.03)"/><path class="cls-1" d="M435.2,340.51l-6.55-20.08h2.8l3.13,9.89c.86,2.71,1.61,5.15,2.14,7.51h.06c.57-2.32,1.4-4.85,2.29-7.48l3.4-9.92h2.77l-7.18,20.08Z" transform="translate(-284.3 -256.03)"/><path class="cls-1" d="M464.56,330.26c0,6.91-4.2,10.57-9.32,10.57-5.3,0-9-4.11-9-10.19,0-6.37,4-10.54,9.32-10.54S464.56,324.31,464.56,330.26Zm-15.58.33c0,4.29,2.32,8.13,6.4,8.13s6.43-3.78,6.43-8.34c0-4-2.08-8.16-6.4-8.16S449,326.18,449,330.59Z" transform="translate(-284.3 -256.03)"/><path class="cls-1" d="M467.57,337.35a9.18,9.18,0,0,0,4.65,1.31c2.65,0,4.2-1.4,4.2-3.42s-1.07-2.95-3.78-4c-3.28-1.16-5.3-2.86-5.3-5.69,0-3.13,2.59-5.45,6.49-5.45a9.12,9.12,0,0,1,4.44,1l-.71,2.12a8,8,0,0,0-3.81-1c-2.74,0-3.78,1.64-3.78,3,0,1.88,1.22,2.8,4,3.87,3.4,1.31,5.12,2.95,5.12,5.9s-2.29,5.78-7,5.78a10.38,10.38,0,0,1-5.12-1.28Z" transform="translate(-284.3 -256.03)"/><path class="cls-1" d="M491.51,320.43v20.08h-2.59V320.43Z" transform="translate(-284.3 -256.03)"/><path class="cls-1" d="M496,320.7a37.11,37.11,0,0,1,5.51-.42c3.72,0,6.37.86,8.13,2.5a9.25,9.25,0,0,1,2.83,7.21,10.62,10.62,0,0,1-2.89,7.8c-1.88,1.88-5,2.89-8.88,2.89a41.71,41.71,0,0,1-4.71-.24Zm2.59,17.75a16.39,16.39,0,0,0,2.62.15c5.54,0,8.55-3.1,8.55-8.52,0-4.74-2.65-7.74-8.13-7.74a14.69,14.69,0,0,0-3,.27Z" transform="translate(-284.3 -256.03)"/><path class="cls-1" d="M526.26,331.1h-7.8v7.24h8.7v2.17H515.87V320.43h10.84v2.17h-8.25V329h7.8Zm-.51-15.22L522,319.36h-2.14l2.77-3.49Z" transform="translate(-284.3 -256.03)"/><path class="cls-1" d="M540.92,331.1h-7.8v7.24h8.7v2.17H530.52V320.43h10.84v2.17h-8.25V329h7.8Z" transform="translate(-284.3 -256.03)"/><path class="cls-1" d="M544.82,337.35a9.18,9.18,0,0,0,4.65,1.31c2.65,0,4.2-1.4,4.2-3.42s-1.07-2.95-3.78-4c-3.28-1.16-5.3-2.86-5.3-5.69,0-3.13,2.59-5.45,6.49-5.45a9.12,9.12,0,0,1,4.44,1l-.71,2.12a8,8,0,0,0-3.81-1c-2.74,0-3.78,1.64-3.78,3,0,1.88,1.22,2.8,4,3.87,3.4,1.31,5.12,2.95,5.12,5.9s-2.29,5.78-7,5.78a10.38,10.38,0,0,1-5.12-1.28Z" transform="translate(-284.3 -256.03)"/><path class="cls-2" d="M307,264.74H294.82v32.61H307q7,0,9.63-3.51t2.65-12.8c0-6.18-.88-10.43-2.65-12.79s-5-3.52-9.63-3.52ZM284.3,256h22.9q12.07,0,17.83,6.32t5.75,19.58a32.43,32.43,0,0,1-1.92,11.76,18.72,18.72,0,0,1-5.77,8,18.43,18.43,0,0,1-6.33,3.39,34,34,0,0,1-9.24,1H284.3V256ZM361.44,265h-12.9v12.61h12.9q5.24,0,7.28-1.43c1.36-1,2-2.59,2-4.91s-.66-3.91-2-4.85S365,265,361.44,265ZM338,256h25.91q9.06,0,13.27,3.65t4.23,11.4a15.84,15.84,0,0,1-2.6,9.41,12,12,0,0,1-7.51,4.7l12.48,20.87H372l-11-19.65H348.54v19.65H338V256ZM409.78,266l-7.32,19.25h14.9L409.78,266ZM404.62,256l-21.17,50h11.16l4.46-11.91h21.74l4.59,11.91H437.1l-21.33-50Zm40.52,8.78H429V256.1h43.27v8.71H456v41.25H445.13V264.81Zm52.83-.07c-3.82,0-6.69,1-8.63,2.87s-3,4.83-3.22,8.77l29.12,0v8.67H486q0,6.53,2.78,9.41t9.14,2.86h17.28v8.71H497.45a33.92,33.92,0,0,1-9.24-1,18.54,18.54,0,0,1-6.33-3.39,18.79,18.79,0,0,1-5.76-8,32.42,32.42,0,0,1-1.92-11.76q0-13.27,5.75-19.58t17.8-6.32h17.49v8.71Zm46.32,41.32q-7,0-10.42-1.17a16.1,16.1,0,0,1-9.6-9.92,32,32,0,0,1-1-9.19V256h10.52v29.42a32.54,32.54,0,0,0,.39,6.18,6.28,6.28,0,0,0,1.35,2.88,8.2,8.2,0,0,0,3.67,2.51,19.2,19.2,0,0,0,6,.75h12.39v8.29Z" transform="translate(-284.3 -256.03)"/></svg>